# xmcd
#
# Track frame offsets:
#       150
#       13649
#       35434
#       49198
#       65553
#       81282
#       100622
#       114230
#       135225
#       149477
#       161126
#       185817
#       203863
#       215846
#       230658
#       248512
#       267736
#       282128
#       294318
#
# Disc length: 4084 seconds
#
# Revision: 0
# Processed by: cddbd v1.4PL0 Copyright (c) Steve Scherf et al.
# Submitted via: WhereIsIt 3.24
#
DISCID=1f0ff213
DTITLE=Blues Masters - Taj Mahal
DYEAR=1900
DGENRE=
TTITLE0=Startesboro Blue
TTITLE1=Leaving Trunk
TTITLE2=Corinna
TTITLE3=Going Up To The Country Paint My Mailbox Blue
TTITLE4=She Cought The Katy And Left Me a Mule To Ride
TTITLE5=Take Going Step
TTITLE6=Six Days On the Road
TTITLE7=Father On Down The Road
TTITLE8=Fishin' Blues
TTITLE9=Cakewalk Into Town
TTITLE10=Oh Susanna
TTITLE11=Frankie And Albert
TTITLE12=Chevrolet
TTITLE13=Johny To Bad
TTITLE14=Sweet Mama Janisse
TTITLE15=Sophisticated Mama
TTITLE16=Blues Ain't Nothing
TTITLE17=Here In The Dark
TTITLE18=Mind Your own Business
EXTD=
EXTT0=
EXTT1=
EXTT2=
EXTT3=
EXTT4=
EXTT5=
EXTT6=
EXTT7=
EXTT8=
EXTT9=
EXTT10=
EXTT11=
EXTT12=
EXTT13=
EXTT14=
EXTT15=
EXTT16=
EXTT17=
EXTT18=
PLAYORDER=
